<mxfile host="Electron" modified="2023-10-29T12:23:04.428Z" agent="Mozilla/5.0 (Windows NT 10.0; Win64; x64) AppleWebKit/537.36 (KHTML, like Gecko) draw.io/21.2.8 Chrome/112.0.5615.165 Electron/24.2.0 Safari/537.36" etag="0DtKOdLQ0VA35iLwGUX7" version="21.2.8" type="device">
  <diagram name="Page-1" id="ApCEoCSF7Zbrgg8VlHuO">
    <mxGraphModel dx="826" dy="619" grid="1" gridSize="10" guides="1" tooltips="1" connect="1" arrows="1" fold="1" page="1" pageScale="1" pageWidth="827" pageHeight="1169" math="0" shadow="0">
      <root>
        <mxCell id="0" />
        <mxCell id="1" parent="0" />
        <mxCell id="lZjS-xw625yKs7e4IhQY-1" value="" style="rounded=1;whiteSpace=wrap;html=1;strokeWidth=2;" vertex="1" parent="1">
          <mxGeometry x="40" y="120" width="320" height="370" as="geometry" />
        </mxCell>
        <mxCell id="lZjS-xw625yKs7e4IhQY-4" value="" style="rounded=1;whiteSpace=wrap;html=1;strokeWidth=2;" vertex="1" parent="1">
          <mxGeometry x="57.5" y="168" width="285" height="312" as="geometry" />
        </mxCell>
        <mxCell id="lZjS-xw625yKs7e4IhQY-7" value="" style="rounded=1;whiteSpace=wrap;html=1;strokeWidth=2;" vertex="1" parent="1">
          <mxGeometry x="73.75" y="220" width="252.5" height="250" as="geometry" />
        </mxCell>
        <mxCell id="lZjS-xw625yKs7e4IhQY-3" value="&lt;b&gt;&lt;font style=&quot;font-size: 16px;&quot;&gt;KafkaController&lt;/font&gt;&lt;/b&gt;" style="text;html=1;align=center;verticalAlign=middle;resizable=0;points=[];autosize=1;strokeColor=none;fillColor=none;" vertex="1" parent="1">
          <mxGeometry x="130" y="131" width="140" height="30" as="geometry" />
        </mxCell>
        <mxCell id="lZjS-xw625yKs7e4IhQY-5" value="&lt;b&gt;&lt;font style=&quot;font-size: 16px;&quot;&gt;processStartup&lt;/font&gt;&lt;/b&gt;" style="text;html=1;align=center;verticalAlign=middle;resizable=0;points=[];autosize=1;strokeColor=none;fillColor=none;" vertex="1" parent="1">
          <mxGeometry x="130" y="182" width="140" height="30" as="geometry" />
        </mxCell>
        <mxCell id="lZjS-xw625yKs7e4IhQY-6" value="&lt;b style=&quot;font-size: 16px;&quot;&gt;&lt;span style=&quot;&quot;&gt;register&lt;/span&gt;ZNodeChange&lt;br&gt;HandlerAndCheckExistence&lt;/b&gt;" style="text;html=1;align=center;verticalAlign=middle;resizable=0;points=[];autosize=1;strokeColor=none;fillColor=none;" vertex="1" parent="1">
          <mxGeometry x="80" y="240" width="240" height="50" as="geometry" />
        </mxCell>
        <mxCell id="lZjS-xw625yKs7e4IhQY-19" value="&lt;span style=&quot;font-size: 16px;&quot;&gt;&lt;b&gt;elect&lt;/b&gt;&lt;/span&gt;" style="text;html=1;align=center;verticalAlign=middle;resizable=0;points=[];autosize=1;strokeColor=none;fillColor=none;" vertex="1" parent="1">
          <mxGeometry x="170" y="292" width="60" height="30" as="geometry" />
        </mxCell>
        <mxCell id="lZjS-xw625yKs7e4IhQY-20" value="" style="rounded=1;whiteSpace=wrap;html=1;strokeWidth=2;" vertex="1" parent="1">
          <mxGeometry x="86.88" y="329" width="226.25" height="131" as="geometry" />
        </mxCell>
        <mxCell id="lZjS-xw625yKs7e4IhQY-21" value="&lt;span style=&quot;font-size: 16px;&quot;&gt;&lt;b&gt;获取activeControllerId&lt;/b&gt;&lt;/span&gt;" style="text;html=1;align=center;verticalAlign=middle;resizable=0;points=[];autosize=1;strokeColor=none;fillColor=none;" vertex="1" parent="1">
          <mxGeometry x="105" y="345" width="190" height="30" as="geometry" />
        </mxCell>
        <mxCell id="lZjS-xw625yKs7e4IhQY-22" value="&lt;span style=&quot;font-size: 16px;&quot;&gt;&lt;b&gt;创建Controller节点&lt;/b&gt;&lt;/span&gt;" style="text;html=1;align=center;verticalAlign=middle;resizable=0;points=[];autosize=1;strokeColor=none;fillColor=none;" vertex="1" parent="1">
          <mxGeometry x="120" y="380" width="160" height="30" as="geometry" />
        </mxCell>
        <mxCell id="lZjS-xw625yKs7e4IhQY-23" value="&lt;span style=&quot;font-size: 16px;&quot;&gt;&lt;b&gt;执行Controller逻辑&lt;/b&gt;&lt;/span&gt;" style="text;html=1;align=center;verticalAlign=middle;resizable=0;points=[];autosize=1;strokeColor=none;fillColor=none;" vertex="1" parent="1">
          <mxGeometry x="120.01" y="414" width="160" height="30" as="geometry" />
        </mxCell>
        <mxCell id="lZjS-xw625yKs7e4IhQY-25" value="" style="rounded=1;whiteSpace=wrap;html=1;strokeWidth=2;" vertex="1" parent="1">
          <mxGeometry x="562" y="121" width="231" height="160" as="geometry" />
        </mxCell>
        <mxCell id="lZjS-xw625yKs7e4IhQY-26" value="&lt;font style=&quot;font-size: 16px;&quot;&gt;&lt;b&gt;&amp;nbsp; &amp;nbsp; /controller&lt;/b&gt;&lt;/font&gt;" style="rounded=1;whiteSpace=wrap;html=1;strokeWidth=2;align=left;" vertex="1" parent="1">
          <mxGeometry x="587" y="145" width="176" height="40" as="geometry" />
        </mxCell>
        <mxCell id="lZjS-xw625yKs7e4IhQY-27" value="&lt;font style=&quot;font-size: 16px;&quot;&gt;&lt;b&gt;&amp;nbsp; &amp;nbsp; /controller_epoch&lt;/b&gt;&lt;/font&gt;" style="rounded=1;whiteSpace=wrap;html=1;strokeWidth=2;align=left;" vertex="1" parent="1">
          <mxGeometry x="587" y="221" width="176" height="40" as="geometry" />
        </mxCell>
        <mxCell id="lZjS-xw625yKs7e4IhQY-31" value="" style="endArrow=classic;html=1;rounded=0;exitX=1.012;exitY=0.52;exitDx=0;exitDy=0;exitPerimeter=0;entryX=0;entryY=0.5;entryDx=0;entryDy=0;strokeWidth=2;dashed=1;" edge="1" parent="1" source="lZjS-xw625yKs7e4IhQY-6" target="lZjS-xw625yKs7e4IhQY-26">
          <mxGeometry width="50" height="50" relative="1" as="geometry">
            <mxPoint x="480" y="360" as="sourcePoint" />
            <mxPoint x="530" y="310" as="targetPoint" />
          </mxGeometry>
        </mxCell>
        <mxCell id="lZjS-xw625yKs7e4IhQY-32" value="&lt;font style=&quot;font-size: 14px;&quot;&gt;注册监听器&lt;/font&gt;" style="edgeLabel;html=1;align=center;verticalAlign=middle;resizable=0;points=[];" vertex="1" connectable="0" parent="lZjS-xw625yKs7e4IhQY-31">
          <mxGeometry x="-0.189" relative="1" as="geometry">
            <mxPoint x="23" y="-1" as="offset" />
          </mxGeometry>
        </mxCell>
        <mxCell id="lZjS-xw625yKs7e4IhQY-33" value="" style="endArrow=classic;html=1;rounded=0;exitX=1.008;exitY=0.707;exitDx=0;exitDy=0;exitPerimeter=0;entryX=0;entryY=0.5;entryDx=0;entryDy=0;strokeWidth=2;dashed=1;" edge="1" parent="1" source="lZjS-xw625yKs7e4IhQY-22" target="lZjS-xw625yKs7e4IhQY-26">
          <mxGeometry width="50" height="50" relative="1" as="geometry">
            <mxPoint x="480" y="360" as="sourcePoint" />
            <mxPoint x="530" y="310" as="targetPoint" />
          </mxGeometry>
        </mxCell>
        <mxCell id="lZjS-xw625yKs7e4IhQY-34" value="&lt;font style=&quot;font-size: 14px;&quot;&gt;创建controller节点&lt;br&gt;更新contrpller_epoch值&lt;/font&gt;" style="edgeLabel;html=1;align=center;verticalAlign=middle;resizable=0;points=[];" vertex="1" connectable="0" parent="lZjS-xw625yKs7e4IhQY-33">
          <mxGeometry x="-0.2115" y="1" relative="1" as="geometry">
            <mxPoint x="43" y="-19" as="offset" />
          </mxGeometry>
        </mxCell>
        <mxCell id="lZjS-xw625yKs7e4IhQY-36" value="" style="curved=1;endArrow=classic;html=1;rounded=0;exitX=0.997;exitY=0.56;exitDx=0;exitDy=0;exitPerimeter=0;entryX=0.145;entryY=1.095;entryDx=0;entryDy=0;entryPerimeter=0;strokeWidth=2;dashed=1;" edge="1" parent="1" source="lZjS-xw625yKs7e4IhQY-23" target="lZjS-xw625yKs7e4IhQY-26">
          <mxGeometry width="50" height="50" relative="1" as="geometry">
            <mxPoint x="480" y="350" as="sourcePoint" />
            <mxPoint x="530" y="300" as="targetPoint" />
            <Array as="points">
              <mxPoint x="570" y="350" />
            </Array>
          </mxGeometry>
        </mxCell>
        <mxCell id="lZjS-xw625yKs7e4IhQY-37" value="&lt;font style=&quot;font-size: 14px;&quot;&gt;注册监听器&lt;br&gt;启动上下文&lt;/font&gt;" style="edgeLabel;html=1;align=center;verticalAlign=middle;resizable=0;points=[];" vertex="1" connectable="0" parent="lZjS-xw625yKs7e4IhQY-36">
          <mxGeometry x="-0.1726" relative="1" as="geometry">
            <mxPoint x="7" y="-29" as="offset" />
          </mxGeometry>
        </mxCell>
        <mxCell id="lZjS-xw625yKs7e4IhQY-38" value="&lt;b&gt;&lt;font style=&quot;font-size: 18px;&quot;&gt;Broker1&lt;/font&gt;&lt;/b&gt;" style="text;html=1;align=center;verticalAlign=middle;resizable=0;points=[];autosize=1;strokeColor=none;fillColor=none;" vertex="1" parent="1">
          <mxGeometry x="155.01" y="80" width="90" height="40" as="geometry" />
        </mxCell>
        <mxCell id="lZjS-xw625yKs7e4IhQY-39" value="" style="rounded=1;whiteSpace=wrap;html=1;strokeWidth=2;" vertex="1" parent="1">
          <mxGeometry x="562" y="399" width="238" height="91" as="geometry" />
        </mxCell>
        <mxCell id="lZjS-xw625yKs7e4IhQY-40" value="&lt;b&gt;&lt;font style=&quot;font-size: 18px;&quot;&gt;Broker2&lt;/font&gt;&lt;/b&gt;" style="text;html=1;align=center;verticalAlign=middle;resizable=0;points=[];autosize=1;strokeColor=none;fillColor=none;" vertex="1" parent="1">
          <mxGeometry x="636" y="424.5" width="90" height="40" as="geometry" />
        </mxCell>
        <mxCell id="lZjS-xw625yKs7e4IhQY-42" value="" style="curved=1;endArrow=classic;html=1;rounded=0;exitX=0.5;exitY=0;exitDx=0;exitDy=0;entryX=1;entryY=0.5;entryDx=0;entryDy=0;strokeWidth=2;dashed=1;" edge="1" parent="1" source="lZjS-xw625yKs7e4IhQY-39" target="lZjS-xw625yKs7e4IhQY-26">
          <mxGeometry width="50" height="50" relative="1" as="geometry">
            <mxPoint x="580" y="330" as="sourcePoint" />
            <mxPoint x="630" y="280" as="targetPoint" />
            <Array as="points">
              <mxPoint x="800" y="300" />
            </Array>
          </mxGeometry>
        </mxCell>
        <mxCell id="lZjS-xw625yKs7e4IhQY-43" value="&lt;font style=&quot;font-size: 14px;&quot;&gt;获取controllerId时已经存在&lt;br&gt;直接返回&lt;/font&gt;" style="edgeLabel;html=1;align=center;verticalAlign=middle;resizable=0;points=[];" vertex="1" connectable="0" parent="lZjS-xw625yKs7e4IhQY-42">
          <mxGeometry x="-0.1834" y="26" relative="1" as="geometry">
            <mxPoint x="-27" y="27" as="offset" />
          </mxGeometry>
        </mxCell>
        <mxCell id="lZjS-xw625yKs7e4IhQY-44" value="&lt;b&gt;&lt;font style=&quot;font-size: 18px;&quot;&gt;Zookeeper&lt;/font&gt;&lt;/b&gt;" style="text;html=1;align=center;verticalAlign=middle;resizable=0;points=[];autosize=1;strokeColor=none;fillColor=none;" vertex="1" parent="1">
          <mxGeometry x="626" y="81" width="110" height="40" as="geometry" />
        </mxCell>
      </root>
    </mxGraphModel>
  </diagram>
</mxfile>
